<svg xmlns="http://www.w3.org/2000/svg" version="1.1" xmlns:xlink="http://www.w3.org/1999/xlink" xmlns:svgjs="http://svgjs.dev/svgjs" width="1500" height="935" viewBox="0 0 1500 935"><g transform="matrix(1,0,0,1,-0.9090909090909918,0.3785425101214628)"><svg viewBox="0 0 396 247" data-background-color="#ffffff" preserveAspectRatio="xMidYMid meet" height="935" width="1500" xmlns="http://www.w3.org/2000/svg" xmlns:xlink="http://www.w3.org/1999/xlink"><g id="tight-bounds" transform="matrix(1,0,0,1,0.2400000000000091,-0.09999999999999432)"><svg viewBox="0 0 395.52 247.2" height="247.2" width="395.52"><g><svg></svg></g><g><svg viewBox="0 0 395.52 247.2" height="247.2" width="395.52"><g transform="matrix(1,0,0,1,101.62427314285715,47.215199999999996)"><svg viewBox="0 0 192.27145371428568 152.7696" height="152.7696" width="192.27145371428568"><g><svg viewBox="0 0 192.27145371428568 152.7696" height="152.7696" width="192.27145371428568"><g><svg viewBox="0 0 192.27145371428568 152.7696" height="152.7696" width="192.27145371428568"><g><svg viewBox="0 0 192.27145371428568 152.7696" height="152.7696" width="192.27145371428568"><g id="textblocktransform"><svg viewBox="0 0 192.27145371428568 152.7696" height="152.7696" width="192.27145371428568" id="textblock"><g><svg viewBox="0 0 192.27145371428568 152.7696" height="152.7696" width="192.27145371428568"><g transform="matrix(1,0,0,1,0,0)"><svg width="192.27145371428568" viewBox="0.5 -34.25 44.05 35" height="152.7696" data-palette-color="#d7dbde"><path d="M8.6 0L9.35-30.8 0.5-31.1 0.5-33.5 21.15-33.5 21.15-30.45 12.3-30.7 13 0 8.6 0ZM29.45-23.8L29.45-23.8Q29.45-22.1 30.57-20.95 31.7-19.8 33.37-18.8 35.05-17.8 37-16.85 38.95-15.9 40.62-14.65 42.3-13.4 43.42-11.73 44.55-10.05 44.55-7.6L44.55-7.6Q44.55-3.45 42.12-1.35 39.7 0.75 34.6 0.75L34.6 0.75Q32.55 0.75 30.65 0.43 28.75 0.1 27.3-0.95 25.85-2 24.92-3.95 24-5.9 23.85-9.1L23.85-9.1Q24.95-9.2 26.1-9.3 27.25-9.4 28.25-9.5L28.25-9.5Q28.35-6.7 28.9-5.05 29.45-3.4 30.3-2.55 31.15-1.7 32.27-1.48 33.4-1.25 34.6-1.25L34.6-1.25Q37.7-1.25 39.05-2.98 40.4-4.7 40.4-7.3L40.4-7.3Q40.4-9.2 39.3-10.53 38.2-11.85 36.55-12.93 34.9-14 33-14.95 31.1-15.9 29.45-17.05 27.8-18.2 26.7-19.7 25.6-21.2 25.6-23.35L25.6-23.35Q25.6-25.2 26.3-27.13 27-29.05 28.2-30.63 29.4-32.2 30.95-33.23 32.5-34.25 34.2-34.25L34.2-34.25Q35.4-34.25 36.57-33.58 37.75-32.9 38.8-31.7 39.85-30.5 40.72-28.83 41.6-27.15 42.2-25.15L42.2-25.15 37.95-23.9Q37.9-25.9 37.55-27.45 37.2-29 36.67-30.08 36.15-31.15 35.5-31.7 34.85-32.25 34.2-32.25L34.2-32.25Q33.2-32.25 32.35-31.45 31.5-30.65 30.85-29.4 30.2-28.15 29.82-26.65 29.45-25.15 29.45-23.8Z" opacity="1" transform="matrix(1,0,0,1,0,0)" fill="#d7dbde" class="wordmark-text-0" data-fill-palette-color="primary" id="text-0"></path></svg></g></svg></g></svg></g></svg></g></svg></g></svg></g></svg></g><path d="M111.594 41.215L111.594 0 358.794 0 358.794 247.2 111.594 247.2 111.594 205.985 125.371 205.985 125.371 233.423 345.017 233.423 345.017 13.777 125.371 13.777 125.371 41.215Z" fill="#d7dbde" stroke="transparent" data-fill-palette-color="tertiary"></path></svg></g><defs></defs></svg><rect width="395.52" height="247.2" fill="none" stroke="none" visibility="hidden"></rect></g></svg></g></svg>